Coordinates
version=1
nRows=5
nColumns=63
inDegrees=yes

Units are S.I. units (second, meters, Newtons, ...)
If the header above contains a line with 'inDegrees', this indicates whether rotational values are in degrees (yes) or radians (no).

endheader
time	pelvis_tilt	pelvis_list	pelvis_rotation	pelvis_tx	pelvis_ty	pelvis_tz	hip_flexion_r	hip_adduction_r	hip_rotation_r	knee_angle_r	knee_angle_r_beta	ankle_angle_r	subtalar_angle_r	mtp_angle_r	hip_flexion_l	hip_adduction_l	hip_rotation_l	knee_angle_l	knee_angle_l_beta	ankle_angle_l	subtalar_angle_l	mtp_angle_l	L5_S1_Flex_Ext	L5_S1_Lat_Bending	L5_S1_axial_rotation	L4_L5_Flex_Ext	L4_L5_Lat_Bending	L4_L5_axial_rotation	L3_L4_Flex_Ext	L3_L4_Lat_Bending	L3_L4_axial_rotation	L2_L3_Flex_Ext	L2_L3_Lat_Bending	L2_L3_axial_rotation	L1_L2_Flex_Ext	L1_L2_Lat_Bending	L1_L2_axial_rotation	L1_T12_Flex_Ext	L1_T12_Lat_Bending	L1_T12_axial_rotation	Abs_r3	Abs_r2	Abs_r1	Abs_t1	Abs_t2	neck_flexion	neck_bending	neck_rotation	arm_flex_r	arm_add_r	arm_rot_r	elbow_flex_r	pro_sup_r	wrist_flex_r	wrist_dev_r	arm_flex_l	arm_add_l	arm_rot_l	elbow_flex_l	pro_sup_l	wrist_flex_l	wrist_dev_l
      7.95000000	     -1.87188230	     -2.59758046	     77.75589618	      0.18114442	      0.76718186	      0.77402022	     10.64311393	     -1.17314886	      8.86861724	     16.34751586	      0.28531798	     37.40978078	      5.95064796	      0.00000000	      5.91710123	      0.49063933	    -17.60136544	      8.75254485	      0.15276073	     39.39486722	     11.01606756	      0.00000000	     -0.38606345	     -0.59467815	      0.76673096	     -0.71695843	     -0.79092194	      0.81465164	     -0.63426364	     -1.44590046	      0.81465164	     -0.44123191	     -1.44590046	      0.67088959	     -0.35849852	     -1.21266769	      0.62296890	     -0.22059665	     -0.92115646	      0.57504822	     -2.75761259	     -6.72711820	      4.26432756	      0.00000000	      0.00000000	      0.98605828	      1.13260054	     13.77673384	     67.34267053	     10.00000816	    165.26338348	      0.12926514	      1.73715633	    -61.36304032	    -23.26095640	    213.31532209	   -146.41873980	    188.32600840	     87.67392944	     82.59757687	     -6.52979619	     24.67283832
      7.96666667	     -2.05386594	     -2.63885019	     78.00139114	      0.18195658	      0.76830517	      0.77377188	     10.04098676	     -1.62412526	      7.37715474	     15.19143839	      0.26514062	     37.07042607	      7.81218728	      0.00000000	      5.65000245	      0.78254864	    -16.70411840	      8.03905775	      0.14030803	     38.58913742	     10.38331809	      0.00000000	     -0.36328556	     -0.62121328	      0.75054133	     -0.67465761	     -0.82621366	      0.79745016	     -0.59684184	     -1.51041796	      0.79745016	     -0.41519906	     -1.51041796	      0.65672366	     -0.33734697	     -1.26677811	      0.60981483	     -0.20758137	     -0.96225936	      0.56290599	     -2.59491240	     -7.02728882	      4.17428569	      0.00000000	      0.00000000	      1.16932657	      1.03945866	     13.50889027	     66.51377542	      9.85799390	    168.76542010	      0.12750331	      1.86373448	    -59.12368103	    -23.81560877	    214.38269902	   -145.12675236	    192.24623476	     85.54159881	     84.35346807	     -4.94914081	     24.27631524
      7.98333333	     -2.26239851	     -2.66883547	     78.27979197	      0.18294158	      0.76933717	      0.77358206	      9.44373986	     -1.94091456	      7.11443690	     14.02167407	      0.24472438	     36.56875990	      8.17970916	      0.00000000	      5.41362194	      1.02625280	    -16.52107720	      7.43662519	      0.12979359	     37.93756559	     10.66305982	      0.00000000	     -0.35166081	     -0.65453470	      0.66406250	     -0.65306929	     -0.87053115	      0.70556640	     -0.57774355	     -1.59143567	      0.70556640	     -0.40191314	     -1.59143567	      0.58105468	     -0.32655223	     -1.33472716	      0.53955078	     -0.20093899	     -1.01387425	      0.49804687	     -2.51187801	     -7.40422741	      3.69331638	      0.00000000	      0.00000000	      1.54951442	      1.21221963	     13.77848655	     65.62843240	     10.18278147	    172.34344146	      0.12484845	      2.27475915	    -57.51367497	    -24.10742416	    215.07249907	   -143.55998361	    195.61686038	     83.82783528	     85.43528825	     -2.82193170	     24.05032228
      8.00000000	     -2.40416153	     -2.73840746	     78.50336184	      0.18372260	      0.77014019	      0.77356075	      8.94978965	     -2.19320254	      6.87273554	     12.92047941	      0.22550491	     36.13882111	      8.68133664	      0.00000000	      5.23848804	      1.18911426	    -16.47528567	      6.89601491	      0.12035817	     37.38976060	     11.03927426	      0.00000000	     -0.34482020	     -0.67721968	      0.55688693	     -0.64036559	     -0.90070217	      0.59169237	     -0.56650510	     -1.64659193	      0.59169237	     -0.39409500	     -1.64659193	      0.48727607	     -0.32020003	     -1.38098637	      0.45247063	     -0.19703026	     -1.04901328	      0.41766520	     -2.46301618	     -7.66084446	      3.09723806	      0.00000000	      0.00000000	      2.19907807	      1.30079187	     14.13404908	     64.76095415	     10.72327426	    175.81060593	      0.11969377	      2.21091209	    -55.77000517	    -24.28241591	    215.48227614	   -142.26186717	    198.22830423	     82.14865308	     86.49961161	     -0.24970813	     23.48298721
      8.01666667	     -2.47220038	     -3.05942432	     78.47789987	      0.18445890	      0.77032002	      0.77320288	      8.71894297	     -2.29873827	      7.01437511	     11.79844782	      0.20592176	     35.76328819	      9.13834800	      0.00000000	      5.26458685	      1.23365154	    -16.52498012	      6.36921037	      0.11116369	     36.95774981	     11.24549421	      0.00000000	     -0.30261946	     -0.67986964	      0.48260290	     -0.56199461	     -0.90422662	      0.51276558	     -0.49717352	     -1.65303504	      0.51276558	     -0.34586379	     -1.65303504	      0.42227754	     -0.28101243	     -1.38639016	      0.39211486	     -0.17291676	     -1.05311807	      0.36195218	     -2.16158057	     -7.69082131	      2.68409256	      0.00000000	      0.00000000	      3.06783090	      1.12684814	     14.65971054	     63.78270603	     11.33914172	    177.57308067	      0.11699174	      2.87683183	    -54.87716908	    -24.37262678	    215.37966394	   -141.50480951	    199.92811289	     80.77435478	     86.91305739	      0.99101324	     23.78173563
